<?xml version="1.0" encoding="UTF-8"?>
<svg xmlns="http://www.w3.org/2000/svg" xmlns:xlink="http://www.w3.org/1999/xlink" width="810pt" height="809.999993pt" viewBox="0 0 810 809.999993" version="1.2">
<defs>
<clipPath id="clip1">
  <path d="M 180.667969 462.222656 L 738 462.222656 L 738 652.144531 L 180.667969 652.144531 Z M 180.667969 462.222656 "/>
</clipPath>
<clipPath id="clip2">
  <path d="M 427 157.949219 L 808.679688 157.949219 L 808.679688 290 L 427 290 Z M 427 157.949219 "/>
</clipPath>
</defs>
<g id="surface1">
<g clip-path="url(#clip1)" clip-rule="nonzero">
<path style=" stroke:none;fill-rule:nonzero;fill:rgb(1.179504%,67.83905%,29.798889%);fill-opacity:1;" d="M 642.664062 631.59375 L 275.640625 631.59375 C 234.707031 631.59375 201.40625 598.285156 201.40625 557.332031 C 201.40625 516.386719 234.707031 483.078125 275.640625 483.078125 L 642.664062 483.078125 C 683.597656 483.078125 716.898438 516.386719 716.898438 557.339844 C 716.898438 598.285156 683.597656 631.59375 642.664062 631.59375 Z M 642.664062 462.527344 L 275.640625 462.527344 C 223.382812 462.527344 180.863281 505.058594 180.863281 557.339844 C 180.863281 609.613281 223.382812 652.136719 275.640625 652.136719 L 642.664062 652.136719 C 694.921875 652.136719 737.433594 609.613281 737.433594 557.332031 C 737.433594 505.058594 694.921875 462.527344 642.664062 462.527344 "/>
</g>
<path style=" stroke:none;fill-rule:nonzero;fill:rgb(1.179504%,67.83905%,29.798889%);fill-opacity:1;" d="M 295.574219 578.359375 L 278.71875 578.359375 C 277.605469 578.359375 276.652344 578.75 275.875 579.527344 C 275.097656 580.304688 274.710938 581.257812 274.710938 582.367188 L 274.710938 599.230469 C 274.710938 600.339844 275.097656 601.292969 275.875 602.070312 C 276.652344 602.847656 277.605469 603.238281 278.71875 603.238281 L 295.574219 603.238281 C 296.800781 603.238281 297.773438 602.847656 298.496094 602.070312 C 299.222656 601.292969 299.578125 600.339844 299.578125 599.230469 L 299.578125 582.367188 C 299.578125 581.257812 299.191406 580.304688 298.414062 579.527344 C 297.628906 578.75 296.683594 578.359375 295.574219 578.359375 "/>
<path style=" stroke:none;fill-rule:nonzero;fill:rgb(1.179504%,67.83905%,29.798889%);fill-opacity:1;" d="M 344.066406 537.621094 C 347.238281 534.054688 351.660156 532.273438 357.335938 532.273438 C 361.5625 532.273438 365.035156 533.226562 367.761719 535.113281 C 370.492188 537.003906 372.691406 540.066406 374.359375 544.296875 C 374.914062 545.628906 375.472656 546.550781 376.027344 547.054688 C 376.582031 547.550781 377.476562 547.800781 378.699219 547.800781 L 393.554688 547.800781 C 394.664062 547.800781 395.640625 547.414062 396.476562 546.636719 C 397.308594 545.859375 397.675781 544.914062 397.558594 543.792969 C 397.339844 539.679688 395.753906 535.367188 392.808594 530.855469 C 389.851562 526.34375 385.351562 522.535156 379.28125 519.421875 C 373.21875 516.304688 365.789062 514.742188 357 514.742188 C 344.761719 514.742188 334.996094 518.140625 327.707031 524.929688 C 320.417969 531.71875 316.550781 541.117188 316.105469 553.148438 L 315.941406 559.824219 L 316.105469 566.503906 C 316.550781 578.527344 320.417969 587.929688 327.707031 594.71875 C 334.996094 601.515625 344.761719 604.90625 357 604.90625 C 366.011719 604.90625 373.53125 603.289062 379.53125 600.066406 C 385.539062 596.835938 389.996094 592.964844 392.890625 588.464844 C 395.777344 583.953125 397.339844 579.746094 397.558594 575.855469 C 397.675781 574.742188 397.308594 573.796875 396.476562 573.011719 C 395.640625 572.234375 394.664062 571.847656 393.554688 571.847656 L 378.699219 571.847656 C 377.476562 571.847656 376.554688 572.128906 375.945312 572.683594 C 375.335938 573.242188 374.800781 574.132812 374.359375 575.351562 C 372.691406 579.695312 370.519531 582.78125 367.847656 584.625 C 365.179688 586.460938 361.679688 587.375 357.335938 587.375 C 345.757812 587.375 339.644531 580.144531 338.972656 565.667969 L 338.804688 560.160156 L 338.972656 553.980469 C 339.191406 546.636719 340.890625 541.179688 344.066406 537.621094 "/>
<path style=" stroke:none;fill-rule:nonzero;fill:rgb(1.179504%,67.83905%,29.798889%);fill-opacity:1;" d="M 472.171875 566.339844 C 471.953125 573.460938 470.253906 578.855469 467.078125 582.527344 C 463.910156 586.207031 459.371094 588.042969 453.472656 588.042969 C 447.578125 588.042969 443.015625 586.207031 439.785156 582.527344 C 436.566406 578.855469 434.835938 573.460938 434.613281 566.339844 L 434.449219 559.824219 L 434.613281 553.308594 C 434.835938 546.191406 436.566406 540.761719 439.785156 537.035156 C 443.015625 533.308594 447.578125 531.441406 453.472656 531.441406 C 459.261719 531.441406 463.773438 533.308594 467 537.035156 C 470.222656 540.761719 471.953125 546.191406 472.171875 553.308594 C 472.28125 554.429688 472.339844 556.601562 472.339844 559.824219 C 472.339844 563.054688 472.28125 565.226562 472.171875 566.339844 Z M 483.523438 524.84375 C 476.285156 518.109375 466.269531 514.742188 453.472656 514.742188 C 440.5625 514.742188 430.496094 518.109375 423.265625 524.84375 C 416.03125 531.578125 412.136719 540.792969 411.582031 552.480469 L 411.414062 559.824219 L 411.582031 567.167969 C 412.136719 578.96875 415.976562 588.210938 423.097656 594.886719 C 430.21875 601.570312 440.34375 604.90625 453.472656 604.90625 C 466.5 604.90625 476.566406 601.570312 483.691406 594.886719 C 490.8125 588.210938 494.648438 578.96875 495.207031 567.167969 C 495.320312 565.835938 495.375 563.390625 495.375 559.824219 C 495.375 556.265625 495.320312 553.8125 495.207031 552.480469 C 494.648438 540.792969 490.75 531.578125 483.523438 524.84375 "/>
<path style=" stroke:none;fill-rule:nonzero;fill:rgb(1.179504%,67.83905%,29.798889%);fill-opacity:1;" d="M 612.382812 514.742188 C 606.707031 514.742188 601.421875 516.105469 596.523438 518.832031 C 591.625 521.5625 587.839844 525.15625 585.175781 529.605469 C 580.277344 519.703125 571.65625 514.742188 559.300781 514.742188 C 549.179688 514.742188 541.105469 518.527344 535.09375 526.09375 L 535.09375 520.417969 C 535.09375 519.199219 534.738281 518.222656 534.011719 517.5 C 533.289062 516.777344 532.316406 516.410156 531.089844 516.410156 L 517.902344 516.410156 C 516.792969 516.410156 515.847656 516.777344 515.070312 517.5 C 514.285156 518.222656 513.898438 519.199219 513.898438 520.417969 L 513.898438 599.230469 C 513.898438 600.339844 514.285156 601.292969 515.070312 602.070312 C 515.847656 602.847656 516.792969 603.238281 517.902344 603.238281 L 532.09375 603.238281 C 533.3125 603.238281 534.289062 602.847656 535.019531 602.070312 C 535.734375 601.292969 536.101562 600.339844 536.101562 599.230469 L 536.101562 552.648438 C 536.101562 545.742188 537.625 540.707031 540.691406 537.53125 C 543.746094 534.359375 547.449219 532.777344 551.789062 532.777344 C 556.46875 532.777344 560.304688 534.359375 563.308594 537.53125 C 566.308594 540.707031 567.816406 545.742188 567.816406 552.648438 L 567.816406 599.230469 C 567.816406 600.339844 568.203125 601.292969 568.980469 602.070312 C 569.757812 602.847656 570.703125 603.238281 571.820312 603.238281 L 585.835938 603.238281 C 587.0625 603.238281 588.039062 602.847656 588.761719 602.070312 C 589.484375 601.292969 589.84375 600.339844 589.84375 599.230469 L 589.84375 552.648438 C 589.84375 545.742188 591.375 540.707031 594.4375 537.53125 C 597.5 534.359375 601.199219 532.777344 605.535156 532.777344 C 610.316406 532.777344 614.1875 534.339844 617.132812 537.453125 C 620.082031 540.570312 621.558594 545.628906 621.558594 552.648438 L 621.558594 599.230469 C 621.558594 600.339844 621.949219 601.292969 622.722656 602.070312 C 623.507812 602.847656 624.453125 603.238281 625.566406 603.238281 L 639.421875 603.238281 C 640.648438 603.238281 641.613281 602.847656 642.335938 602.070312 C 643.0625 601.292969 643.425781 600.339844 643.425781 599.230469 L 643.425781 551.3125 C 643.425781 539.398438 640.53125 530.332031 634.742188 524.097656 C 628.960938 517.859375 621.5 514.742188 612.382812 514.742188 "/>
<path style=" stroke:none;fill-rule:nonzero;fill:rgb(1.179504%,67.83905%,29.798889%);fill-opacity:1;" d="M 21.820312 355.824219 C 21.820312 323.117188 48.425781 296.503906 81.125 296.503906 L 383.308594 296.503906 C 416.007812 296.503906 442.613281 323.117188 442.613281 355.832031 C 442.613281 388.539062 416.007812 415.152344 383.308594 415.152344 L 81.125 415.152344 C 48.425781 415.152344 21.820312 388.539062 21.820312 355.824219 Z M 463.15625 355.824219 C 463.15625 311.777344 427.332031 275.953125 383.308594 275.953125 L 81.125 275.953125 C 37.101562 275.953125 1.277344 311.777344 1.277344 355.832031 C 1.277344 399.871094 37.101562 435.703125 81.125 435.703125 L 383.308594 435.703125 C 427.332031 435.703125 463.15625 399.871094 463.15625 355.824219 "/>
<path style=" stroke:none;fill-rule:nonzero;fill:rgb(1.179504%,67.83905%,29.798889%);fill-opacity:1;" d="M 139.804688 374.992188 L 127.609375 374.992188 C 126.800781 374.992188 126.117188 375.277344 125.554688 375.839844 C 124.988281 376.402344 124.707031 377.089844 124.707031 377.890625 L 124.707031 390.085938 C 124.707031 390.894531 124.988281 391.574219 125.554688 392.136719 C 126.117188 392.699219 126.800781 392.980469 127.609375 392.980469 L 139.804688 392.980469 C 140.6875 392.980469 141.386719 392.699219 141.914062 392.136719 C 142.4375 391.574219 142.699219 390.894531 142.699219 390.085938 L 142.699219 377.890625 C 142.699219 377.089844 142.417969 376.402344 141.851562 375.839844 C 141.289062 375.277344 140.601562 374.992188 139.804688 374.992188 "/>
<path style=" stroke:none;fill-rule:nonzero;fill:rgb(1.179504%,67.83905%,29.798889%);fill-opacity:1;" d="M 193.890625 328.980469 C 185.351562 328.980469 178.632812 332 173.726562 338.035156 L 173.726562 333.082031 C 173.726562 332.199219 173.460938 331.496094 172.9375 330.972656 C 172.417969 330.453125 171.710938 330.1875 170.828125 330.1875 L 160.808594 330.1875 C 160.003906 330.1875 159.316406 330.453125 158.753906 330.972656 C 158.191406 331.496094 157.910156 332.199219 157.910156 333.082031 L 157.910156 390.085938 C 157.910156 390.894531 158.191406 391.574219 158.753906 392.136719 C 159.316406 392.699219 160.003906 392.980469 160.808594 392.980469 L 171.550781 392.980469 C 172.433594 392.980469 173.140625 392.699219 173.660156 392.136719 C 174.183594 391.574219 174.453125 390.894531 174.453125 390.085938 L 174.453125 356.875 C 174.453125 352.289062 175.695312 348.664062 178.191406 346.003906 C 180.683594 343.351562 183.988281 342.019531 188.09375 342.019531 C 192.359375 342.019531 195.632812 343.328125 197.925781 345.949219 C 200.226562 348.5625 201.371094 352.203125 201.371094 356.875 L 201.371094 390.085938 C 201.371094 390.894531 201.652344 391.574219 202.214844 392.136719 C 202.777344 392.699219 203.464844 392.980469 204.269531 392.980469 L 215.132812 392.980469 C 216.015625 392.980469 216.722656 392.699219 217.25 392.136719 C 217.769531 391.574219 218.027344 390.894531 218.027344 390.085938 L 218.027344 356.152344 C 218.027344 347.695312 215.855469 341.058594 211.515625 336.226562 C 207.164062 331.398438 201.292969 328.980469 193.890625 328.980469 "/>
<path style=" stroke:none;fill-rule:nonzero;fill:rgb(1.179504%,67.83905%,29.798889%);fill-opacity:1;" d="M 273.683594 356.03125 L 247.246094 356.03125 L 247.246094 355.792969 C 247.246094 351.039062 248.410156 347.238281 250.75 344.371094 C 253.078125 341.515625 256.300781 340.089844 260.40625 340.089844 C 264.511719 340.089844 267.75 341.515625 270.125 344.371094 C 272.492188 347.238281 273.683594 351.039062 273.683594 355.792969 Z M 260.40625 328.980469 C 251.066406 328.980469 243.765625 331.878906 238.492188 337.675781 C 233.222656 343.464844 230.585938 351.40625 230.585938 361.460938 L 230.707031 364.488281 C 231.027344 373.988281 233.824219 381.308594 239.09375 386.460938 C 244.367188 391.617188 251.511719 394.195312 260.527344 394.195312 C 266.15625 394.195312 271.109375 393.226562 275.375 391.289062 C 279.636719 389.363281 282.921875 387.085938 285.214844 384.472656 C 287.507812 381.851562 288.65625 379.582031 288.65625 377.644531 C 288.65625 376.921875 288.390625 376.355469 287.871094 375.960938 C 287.347656 375.558594 286.722656 375.351562 286 375.351562 L 275.375 375.351562 C 274.414062 375.351562 273.726562 375.457031 273.324219 375.65625 C 272.921875 375.855469 272.355469 376.402344 271.632812 377.285156 C 268.738281 380.988281 264.992188 382.839844 260.40625 382.839844 C 256.378906 382.839844 253.222656 381.371094 250.929688 378.429688 C 248.636719 375.488281 247.40625 371.769531 247.246094 367.261719 L 247.246094 366.292969 L 287.324219 366.292969 C 288.214844 366.292969 288.9375 366.019531 289.503906 365.445312 C 290.066406 364.890625 290.347656 364.203125 290.347656 363.398438 L 290.347656 360.859375 C 290.347656 351.199219 287.75 343.464844 282.5625 337.675781 C 277.367188 331.878906 269.980469 328.980469 260.40625 328.980469 "/>
<path style=" stroke:none;fill-rule:nonzero;fill:rgb(1.179504%,67.83905%,29.798889%);fill-opacity:1;" d="M 341.289062 379.582031 L 332.839844 379.582031 C 330.105469 379.582031 328.132812 378.695312 326.921875 376.921875 C 325.71875 375.152344 325.109375 372.53125 325.109375 369.074219 L 325.109375 343.109375 L 340.207031 343.109375 C 341.007812 343.109375 341.691406 342.824219 342.253906 342.261719 C 342.820312 341.699219 343.101562 341.011719 343.101562 340.203125 L 343.101562 333.082031 C 343.101562 332.28125 342.820312 331.59375 342.253906 331.03125 C 341.691406 330.46875 341.007812 330.1875 340.207031 330.1875 L 325.109375 330.1875 L 325.109375 310.140625 C 325.109375 309.257812 324.851562 308.546875 324.324219 308.03125 C 323.808594 307.503906 323.097656 307.246094 322.214844 307.246094 L 312.191406 307.246094 C 311.390625 307.246094 310.707031 307.503906 310.144531 308.03125 C 309.578125 308.546875 309.296875 309.257812 309.296875 310.140625 L 309.296875 330.1875 L 299.761719 330.1875 C 298.953125 330.1875 298.269531 330.46875 297.707031 331.03125 C 297.140625 331.59375 296.867188 332.28125 296.867188 333.082031 L 296.867188 340.203125 C 296.867188 341.011719 297.140625 341.699219 297.707031 342.261719 C 298.269531 342.824219 298.953125 343.109375 299.761719 343.109375 L 309.296875 343.109375 L 309.296875 370.398438 C 309.296875 377.8125 311.148438 383.429688 314.851562 387.246094 C 318.550781 391.070312 324.066406 392.980469 331.394531 392.980469 L 341.289062 392.980469 C 342.171875 392.980469 342.878906 392.699219 343.40625 392.136719 C 343.921875 391.574219 344.191406 390.894531 344.191406 390.085938 L 344.191406 382.476562 C 344.191406 381.589844 343.921875 380.890625 343.40625 380.363281 C 342.878906 379.839844 342.171875 379.582031 341.289062 379.582031 "/>
<g clip-path="url(#clip2)" clip-rule="nonzero">
<path style=" stroke:none;fill-rule:nonzero;fill:rgb(1.179504%,67.83905%,29.798889%);fill-opacity:1;" d="M 742.816406 272.761719 L 493.574219 272.761719 C 466.605469 272.761719 444.660156 250.8125 444.660156 223.824219 C 444.660156 196.84375 466.605469 174.902344 493.574219 174.902344 L 742.816406 174.902344 C 769.796875 174.902344 791.730469 196.84375 791.730469 223.832031 C 791.730469 250.8125 769.796875 272.761719 742.816406 272.761719 Z M 742.816406 157.949219 L 493.574219 157.949219 C 457.257812 157.949219 427.722656 187.503906 427.722656 223.832031 C 427.722656 260.160156 457.257812 289.714844 493.574219 289.714844 L 742.816406 289.714844 C 779.132812 289.714844 808.679688 260.160156 808.679688 223.824219 C 808.679688 187.503906 779.132812 157.949219 742.816406 157.949219 "/>
</g>
<path style=" stroke:none;fill-rule:nonzero;fill:rgb(1.179504%,67.83905%,29.798889%);fill-opacity:1;" d="M 522.449219 231.296875 L 512.078125 231.296875 C 511.390625 231.296875 510.804688 231.542969 510.324219 232.023438 C 509.84375 232.503906 509.609375 233.082031 509.609375 233.765625 L 509.609375 244.144531 C 509.609375 244.824219 509.84375 245.410156 510.324219 245.890625 C 510.804688 246.367188 511.390625 246.605469 512.078125 246.605469 L 522.449219 246.605469 C 523.199219 246.605469 523.800781 246.367188 524.25 245.890625 C 524.691406 245.410156 524.910156 244.824219 524.910156 244.144531 L 524.910156 233.765625 C 524.910156 233.082031 524.675781 232.503906 524.195312 232.023438 C 523.714844 231.542969 523.128906 231.296875 522.449219 231.296875 "/>
<path style=" stroke:none;fill-rule:nonzero;fill:rgb(1.179504%,67.83905%,29.798889%);fill-opacity:1;" d="M 572.363281 223.902344 C 572.21875 228.289062 571.175781 231.609375 569.226562 233.867188 C 567.273438 236.128906 564.488281 237.257812 560.863281 237.257812 C 557.230469 237.257812 554.417969 236.128906 552.4375 233.867188 C 550.449219 231.609375 549.390625 228.289062 549.253906 223.902344 L 549.148438 219.894531 L 549.253906 215.886719 C 549.390625 211.503906 550.449219 208.167969 552.4375 205.875 C 554.417969 203.582031 557.230469 202.429688 560.863281 202.429688 C 564.417969 202.429688 567.191406 203.582031 569.179688 205.875 C 571.160156 208.167969 572.21875 211.503906 572.363281 215.886719 C 572.429688 216.578125 572.460938 217.910156 572.460938 219.894531 C 572.460938 221.882812 572.429688 223.222656 572.363281 223.902344 Z M 579.347656 198.375 C 574.890625 194.230469 568.730469 192.160156 560.863281 192.160156 C 552.917969 192.160156 546.71875 194.230469 542.269531 198.375 C 537.8125 202.519531 535.421875 208.183594 535.078125 215.375 L 534.980469 219.894531 L 535.078125 224.417969 C 535.421875 231.679688 537.785156 237.363281 542.164062 241.46875 C 546.550781 245.578125 552.78125 247.632812 560.863281 247.632812 C 568.867188 247.632812 575.066406 245.578125 579.445312 241.46875 C 583.824219 237.363281 586.1875 231.679688 586.53125 224.417969 C 586.597656 223.59375 586.636719 222.085938 586.636719 219.894531 C 586.636719 217.707031 586.597656 216.199219 586.53125 215.375 C 586.1875 208.183594 583.796875 202.519531 579.347656 198.375 "/>
<path style=" stroke:none;fill-rule:nonzero;fill:rgb(1.179504%,67.83905%,29.798889%);fill-opacity:1;" d="M 630.59375 193.1875 L 626.273438 193.1875 C 619.835938 193.1875 614.910156 195.441406 611.488281 199.960938 L 611.488281 195.753906 C 611.488281 195 611.246094 194.382812 610.765625 193.90625 C 610.285156 193.425781 609.667969 193.1875 608.921875 193.1875 L 600.5 193.1875 C 599.8125 193.1875 599.226562 193.425781 598.753906 193.90625 C 598.273438 194.382812 598.03125 195 598.03125 195.753906 L 598.03125 244.144531 C 598.03125 244.824219 598.273438 245.410156 598.753906 245.890625 C 599.226562 246.367188 599.8125 246.605469 600.5 246.605469 L 609.640625 246.605469 C 610.324219 246.605469 610.902344 246.367188 611.382812 245.890625 C 611.863281 245.410156 612.105469 244.824219 612.105469 244.144531 L 612.105469 215.992188 C 612.105469 212.769531 613.027344 210.238281 614.878906 208.386719 C 616.722656 206.542969 619.257812 205.613281 622.472656 205.613281 L 630.59375 205.613281 C 631.339844 205.613281 631.941406 205.378906 632.390625 204.898438 C 632.832031 204.417969 633.054688 203.839844 633.054688 203.152344 L 633.054688 195.648438 C 633.054688 194.894531 632.832031 194.300781 632.390625 193.851562 C 631.941406 193.410156 631.339844 193.1875 630.59375 193.1875 "/>
<path style=" stroke:none;fill-rule:nonzero;fill:rgb(1.179504%,67.83905%,29.798889%);fill-opacity:1;" d="M 675.78125 222.566406 C 675.578125 226.125 674.511719 229.140625 672.597656 231.609375 C 670.679688 234.070312 667.800781 235.304688 663.96875 235.304688 C 656.09375 235.304688 652.15625 229.964844 652.15625 219.277344 L 652.261719 216.816406 C 652.671875 207.769531 656.574219 203.253906 663.96875 203.253906 C 667.800781 203.253906 670.679688 204.488281 672.597656 206.949219 C 674.511719 209.417969 675.578125 212.433594 675.78125 215.992188 C 675.84375 216.539062 675.882812 217.636719 675.882812 219.277344 C 675.882812 220.921875 675.84375 222.019531 675.78125 222.566406 Z M 689.125 193.90625 C 688.648438 193.425781 688.066406 193.1875 687.382812 193.1875 L 678.957031 193.1875 C 678.28125 193.1875 677.679688 193.425781 677.167969 193.90625 C 676.652344 194.382812 676.390625 195 676.390625 195.753906 L 676.390625 199.761719 C 674.617188 197.433594 672.355469 195.582031 669.621094 194.214844 C 666.878906 192.84375 663.695312 192.160156 660.070312 192.160156 C 653.015625 192.160156 647.667969 194.382812 644.042969 198.832031 C 640.417969 203.289062 638.460938 209.179688 638.195312 216.503906 L 638.085938 219.277344 L 638.195312 222.050781 C 638.460938 229.515625 640.402344 235.40625 643.992188 239.726562 C 647.585938 244.039062 652.949219 246.195312 660.070312 246.195312 C 666.847656 246.195312 672.082031 244 675.78125 239.617188 L 675.78125 246.605469 C 675.78125 251.132812 674.824219 254.292969 672.902344 256.105469 C 670.984375 257.925781 667.976562 258.832031 663.863281 258.832031 C 660.714844 258.832031 658.386719 258.203125 656.878906 256.929688 C 655.378906 255.664062 654.242188 254.140625 653.496094 252.359375 C 653.222656 251.535156 652.855469 250.972656 652.414062 250.667969 C 651.972656 250.355469 651.441406 250.203125 650.824219 250.203125 L 641.683594 250.203125 C 640.996094 250.203125 640.417969 250.421875 639.9375 250.871094 C 639.457031 251.3125 639.214844 251.878906 639.214844 252.5625 C 639.214844 254.414062 640.007812 256.640625 641.582031 259.246094 C 643.152344 261.84375 645.824219 264.152344 649.589844 266.179688 C 653.359375 268.199219 658.285156 269.203125 664.378906 269.203125 C 672.933594 269.203125 679.339844 267.117188 683.582031 262.941406 C 687.824219 258.765625 689.949219 252.875 689.949219 245.273438 L 689.851562 195.753906 C 689.851562 195 689.605469 194.382812 689.125 193.90625 "/>
</g>
</svg>
