<?xml version="1.0" encoding="UTF-8"?>
<svg xmlns="http://www.w3.org/2000/svg" xmlns:xlink="http://www.w3.org/1999/xlink" width="675pt" height="675.000002pt" viewBox="0 0 675 675.000002" version="1.2">
<defs>
<clipPath id="clip1">
  <path d="M 0.5 0 L 674.5 0 L 674.5 158 L 0.5 158 Z M 0.5 0 "/>
</clipPath>
<clipPath id="clip2">
  <path d="M 0.5 197 L 674.5 197 L 674.5 674 L 0.5 674 Z M 0.5 197 "/>
</clipPath>
</defs>
<g id="surface1">
<g clip-path="url(#clip1)" clip-rule="nonzero">
<path style=" stroke:none;fill-rule:nonzero;fill:rgb(98.429871%,52.159119%,0%);fill-opacity:1;" d="M 654.753906 0 L 20.246094 0 C 9.335938 0 0.5 8.835938 0.5 19.746094 L 0.5 157.96875 L 674.5 157.96875 L 674.5 19.746094 C 674.5 8.835938 665.664062 0 654.753906 0 Z M 100.546875 98.730469 C 89.636719 98.730469 80.800781 89.894531 80.800781 78.984375 C 80.800781 68.078125 89.636719 59.238281 100.546875 59.238281 C 111.453125 59.238281 120.292969 68.078125 120.292969 78.984375 C 120.292969 89.894531 111.453125 98.730469 100.546875 98.730469 Z M 179.53125 98.730469 C 168.621094 98.730469 159.785156 89.894531 159.785156 78.984375 C 159.785156 68.078125 168.621094 59.238281 179.53125 59.238281 C 190.4375 59.238281 199.277344 68.078125 199.277344 78.984375 C 199.277344 89.894531 190.4375 98.730469 179.53125 98.730469 Z M 258.515625 98.730469 C 247.605469 98.730469 238.769531 89.894531 238.769531 78.984375 C 238.769531 68.078125 247.605469 59.238281 258.515625 59.238281 C 269.421875 59.238281 278.261719 68.078125 278.261719 78.984375 C 278.261719 89.894531 269.421875 98.730469 258.515625 98.730469 Z M 258.515625 98.730469 "/>
</g>
<path style=" stroke:none;fill-rule:nonzero;fill:rgb(98.429871%,52.159119%,0%);fill-opacity:1;" d="M 470.101562 421.910156 L 465.433594 456.136719 L 507.96875 456.136719 L 520.414062 421.910156 Z M 470.101562 421.910156 "/>
<path style=" stroke:none;fill-rule:nonzero;fill:rgb(98.429871%,52.159119%,0%);fill-opacity:1;" d="M 430.246094 421.910156 L 370.410156 421.910156 L 370.410156 456.136719 L 425.574219 456.136719 Z M 430.246094 421.910156 "/>
<path style=" stroke:none;fill-rule:nonzero;fill:rgb(98.429871%,52.159119%,0%);fill-opacity:1;" d="M 475.488281 382.417969 L 534.777344 382.417969 L 546.261719 350.824219 L 479.796875 350.824219 Z M 475.488281 382.417969 "/>
<path style=" stroke:none;fill-rule:nonzero;fill:rgb(98.429871%,52.159119%,0%);fill-opacity:1;" d="M 439.941406 350.824219 L 370.410156 350.824219 L 370.410156 382.417969 L 435.628906 382.417969 Z M 439.941406 350.824219 "/>
<path style=" stroke:none;fill-rule:nonzero;fill:rgb(98.429871%,52.159119%,0%);fill-opacity:1;" d="M 120.292969 548.285156 L 212.441406 548.285156 L 212.441406 508.792969 L 120.292969 508.792969 Z M 120.292969 548.285156 "/>
<g clip-path="url(#clip2)" clip-rule="nonzero">
<path style=" stroke:none;fill-rule:nonzero;fill:rgb(98.429871%,52.159119%,0%);fill-opacity:1;" d="M 0.5 197.460938 L 0.5 654.253906 C 0.5 665.164062 9.335938 674 20.246094 674 L 654.753906 674 C 665.664062 674 674.5 665.164062 674.5 654.253906 L 674.5 197.460938 Z M 251.933594 568.03125 C 251.933594 578.9375 243.09375 587.777344 232.1875 587.777344 L 100.546875 587.777344 C 89.636719 587.777344 80.800781 578.9375 80.800781 568.03125 L 80.800781 489.046875 C 80.800781 478.136719 89.636719 469.300781 100.546875 469.300781 L 232.1875 469.300781 C 243.09375 469.300781 251.933594 478.136719 251.933594 489.046875 Z M 232.1875 429.808594 L 100.546875 429.808594 C 89.636719 429.808594 80.800781 420.96875 80.800781 410.0625 C 80.800781 399.152344 89.636719 390.316406 100.546875 390.316406 L 232.1875 390.316406 C 243.09375 390.316406 251.933594 399.152344 251.933594 410.0625 C 251.933594 420.96875 243.09375 429.808594 232.1875 429.808594 Z M 232.1875 324.496094 L 100.546875 324.496094 C 89.636719 324.496094 80.800781 315.65625 80.800781 304.75 C 80.800781 293.839844 89.636719 285.003906 100.546875 285.003906 L 232.1875 285.003906 C 243.09375 285.003906 251.933594 293.839844 251.933594 304.75 C 251.933594 315.65625 243.09375 324.496094 232.1875 324.496094 Z M 574.453125 574.613281 L 541.542969 574.613281 L 541.542969 594.359375 C 541.542969 605.265625 532.707031 614.105469 521.796875 614.105469 C 510.890625 614.105469 502.050781 605.265625 502.050781 594.359375 L 502.050781 574.613281 L 383.574219 574.613281 L 383.574219 594.359375 C 383.574219 605.265625 374.738281 614.105469 363.828125 614.105469 C 352.917969 614.105469 344.082031 605.265625 344.082031 594.359375 L 344.082031 574.234375 C 314.503906 570.953125 291.425781 545.816406 291.425781 515.375 C 291.425781 489.628906 307.9375 467.683594 330.917969 459.53125 L 330.917969 298.167969 L 311.171875 298.167969 C 300.261719 298.167969 291.425781 289.328125 291.425781 278.421875 C 291.425781 267.511719 300.261719 258.675781 311.171875 258.675781 L 350.664062 258.675781 C 361.574219 258.675781 370.410156 267.511719 370.410156 278.421875 L 370.410156 311.332031 L 574.453125 311.332031 C 580.898438 311.332031 586.933594 314.472656 590.628906 319.75 C 594.324219 325.023438 595.214844 331.769531 593.011719 337.824219 L 540.355469 482.628906 C 537.519531 490.429688 530.101562 495.628906 521.796875 495.628906 L 350.664062 495.628906 C 339.777344 495.628906 330.917969 504.488281 330.917969 515.375 C 330.917969 526.261719 339.777344 535.121094 350.664062 535.121094 L 574.453125 535.121094 C 585.363281 535.121094 594.199219 543.957031 594.199219 554.867188 C 594.199219 565.773438 585.363281 574.613281 574.453125 574.613281 Z M 574.453125 574.613281 "/>
</g>
</g>
</svg>
