<?xml version="1.0" encoding="UTF-8"?>
<svg xmlns="http://www.w3.org/2000/svg" xmlns:xlink="http://www.w3.org/1999/xlink" width="810pt" height="809.999993pt" viewBox="0 0 810 809.999993" version="1.2">
<g id="surface1">
<path style=" stroke:none;fill-rule:nonzero;fill:rgb(100%,72.549438%,2.349854%);fill-opacity:1;" d="M 40.5 364.5 C 40.5 289.933594 100.933594 229.5 175.5 229.5 C 250.066406 229.5 310.5 289.933594 310.5 364.5 C 310.5 439.066406 250.066406 499.5 175.5 499.5 C 100.933594 499.5 40.5 439.066406 40.5 364.5 Z M 351 364.5 C 351 267.734375 272.265625 189 175.5 189 C 78.734375 189 0 267.734375 0 364.5 C 0 461.269531 78.734375 540 175.5 540 C 272.265625 540 351 461.269531 351 364.5 "/>
<path style=" stroke:none;fill-rule:nonzero;fill:rgb(100%,72.549438%,2.349854%);fill-opacity:1;" d="M 356.167969 27 L 369.667969 0 L 224.332031 0 L 237.832031 27 L 356.167969 27 "/>
<path style=" stroke:none;fill-rule:nonzero;fill:rgb(100%,72.549438%,2.349854%);fill-opacity:1;" d="M 378 729 C 378 736.433594 371.933594 742.5 364.5 742.5 L 229.5 742.5 C 222.0625 742.5 216 736.433594 216 729 L 216 702 C 216 694.5625 222.0625 688.5 229.5 688.5 L 364.5 688.5 C 371.933594 688.5 378 694.5625 378 702 Z M 408.375 732.953125 C 397.722656 720.824219 391.5 705.058594 391.5 688.5 L 391.5 648 L 121.5 648 C 106.628906 648 94.5 635.871094 94.5 621 L 94.5 549.964844 C 85.058594 545.851562 76.097656 540.949219 67.5 535.515625 L 67.5 742.5 C 67.5 764.859375 85.640625 783 108 783 L 409.691406 783 C 406.738281 774.5625 405 765.492188 405 756 C 405 748.140625 406.160156 740.390625 408.375 732.953125 "/>
<path style=" stroke:none;fill-rule:nonzero;fill:rgb(100%,72.549438%,2.349854%);fill-opacity:1;" d="M 94.5 108 C 94.5 93.128906 106.628906 81 121.5 81 L 472.5 81 C 487.371094 81 499.5 93.128906 499.5 108 L 499.5 437.0625 L 526.5 439.171875 L 526.5 40.5 C 526.5 18.140625 508.359375 0 486 0 L 399.832031 0 L 372.832031 54 L 221.167969 54 L 194.167969 0 L 108 0 C 85.640625 0 67.5 18.140625 67.5 40.5 L 67.5 193.484375 C 76.097656 188.050781 85.058594 183.148438 94.5 179.035156 L 94.5 108 "/>
<path style=" stroke:none;fill-rule:nonzero;fill:rgb(100%,72.549438%,2.349854%);fill-opacity:1;" d="M 445.5 572.589844 L 480.410156 607.5 L 445.5 642.410156 Z M 445.5 487.105469 L 489.480469 490.480469 L 445.5 534.410156 Z M 534.410156 553.5 L 499.5 588.410156 L 464.589844 553.5 L 499.5 518.589844 Z M 524.917969 493.171875 L 589.726562 498.179688 L 553.5 534.410156 L 518.589844 499.5 Z M 642.410156 553.5 L 607.5 588.410156 L 572.589844 553.5 L 607.5 518.589844 Z M 690.027344 505.878906 L 661.5 534.410156 L 628.222656 501.132812 Z M 750.410156 553.5 L 715.5 588.410156 L 680.589844 553.5 L 715.5 518.589844 Z M 769.5 511.996094 L 769.5 534.410156 L 745.242188 510.097656 Z M 769.5 634.5 C 769.5 636.765625 768.8125 638.824219 767.8125 640.722656 L 734.589844 607.5 L 769.5 572.589844 Z M 694.089844 648 L 715.5 626.589844 L 736.910156 648 Z M 626.589844 607.5 L 661.5 572.589844 L 696.410156 607.5 L 661.5 642.410156 Z M 586.089844 648 L 607.5 626.589844 L 628.910156 648 Z M 518.589844 607.5 L 553.5 572.589844 L 588.410156 607.5 L 553.5 642.410156 Z M 478.089844 648 L 499.5 626.589844 L 520.910156 648 Z M 756 702 L 459 702 C 451.5625 702 445.5 695.933594 445.5 688.5 L 445.5 675 L 756 675 C 778.359375 675 796.5 656.859375 796.5 634.5 L 796.5 487 L 445.5 460.003906 L 445.5 391.5 C 445.5 369.140625 427.359375 351 405 351 L 377.3125 351 C 377.628906 355.480469 378 359.964844 378 364.5 C 378 369.035156 377.628906 373.519531 377.3125 378 L 405 378 C 412.433594 378 418.5 384.066406 418.5 391.5 L 418.5 688.5 C 418.5 704.6875 428.097656 718.609375 441.859375 725.042969 C 435.691406 733.851562 432 744.449219 432 756 C 432 785.792969 456.203125 810 486 810 C 515.792969 810 540 785.792969 540 756 C 540 746.136719 537.152344 736.960938 532.511719 729 L 709.488281 729 C 704.847656 736.960938 702 746.136719 702 756 C 702 785.792969 726.203125 810 756 810 C 785.792969 810 810 785.792969 810 756 C 810 726.203125 785.792969 702 756 702 "/>
<path style=" stroke:none;fill-rule:nonzero;fill:rgb(100%,72.549438%,2.349854%);fill-opacity:1;" d="M 472.5 391.5 L 472.5 108 L 121.5 108 L 121.5 169.542969 C 138.742188 164.742188 156.777344 162 175.5 162 C 273.269531 162 355.113281 231.664062 373.9375 324 L 405 324 C 442.230469 324 472.5 354.269531 472.5 391.5 "/>
<path style=" stroke:none;fill-rule:nonzero;fill:rgb(100%,72.549438%,2.349854%);fill-opacity:1;" d="M 175.5 567 C 156.777344 567 138.742188 564.257812 121.5 559.457031 L 121.5 621 L 391.5 621 L 391.5 405 L 373.9375 405 C 355.113281 497.335938 273.269531 567 175.5 567 "/>
<path style=" stroke:none;fill-rule:nonzero;fill:rgb(100%,72.549438%,2.349854%);fill-opacity:1;" d="M 189 459 L 189 430.050781 C 204.609375 425.089844 216 410.644531 216 393.449219 C 216 378.792969 207.824219 365.554688 194.695312 359.015625 L 168.378906 345.832031 C 164.425781 343.878906 162 339.925781 162 335.550781 C 162 329.167969 167.167969 324 173.546875 324 L 177.449219 324 C 183.832031 324 189 329.167969 189 335.550781 L 189 337.5 L 216 337.5 L 216 335.550781 C 216 318.304688 204.609375 303.910156 189 298.953125 L 189 270 L 162 270 L 162 298.953125 C 146.390625 303.910156 135 318.304688 135 335.550781 C 135 350.207031 143.171875 363.445312 156.304688 369.984375 L 182.617188 383.167969 C 186.574219 385.121094 189 389.074219 189 393.449219 C 189 399.832031 183.832031 405 177.449219 405 L 173.546875 405 C 167.167969 405 162 399.832031 162 393.449219 L 162 378 L 135 378 L 135 393.449219 C 135 410.644531 146.390625 425.089844 162 430.050781 L 162 459 L 189 459 "/>
</g>
</svg>
