<?xml version="1.0" encoding="UTF-8"?>
<svg xmlns="http://www.w3.org/2000/svg" xmlns:xlink="http://www.w3.org/1999/xlink" width="810pt" height="809.999993pt" viewBox="0 0 810 809.999993" version="1.2">
<defs>
<clipPath id="clip1">
  <path d="M 156 82 L 654.960938 82 L 654.960938 728 L 156 728 Z M 156 82 "/>
</clipPath>
</defs>
<g id="surface1">
<g clip-path="url(#clip1)" clip-rule="nonzero">
<path style=" stroke:none;fill-rule:nonzero;fill:rgb(21.958923%,71.369934%,100%);fill-opacity:1;" d="M 332.21875 82.046875 L 332.21875 92.941406 L 363.304688 108.824219 L 364.136719 109.253906 L 364.738281 109.597656 C 364.738281 109.597656 366.742188 110.746094 369.238281 112.523438 L 369.667969 112.8125 L 370.039062 113.125 C 374.25 116.339844 377.898438 120.140625 381.15625 124.765625 L 382.042969 126.027344 L 382.730469 127.03125 L 383.25 127.921875 C 384.378906 129.785156 386.492188 133.269531 388.03125 138.042969 C 392.933594 153.148438 391.460938 169.824219 383.992188 183.800781 C 378.992188 193.195312 371.550781 200.761719 362.648438 206.164062 C 367.046875 210.980469 370.972656 216.988281 373.363281 224.34375 C 378.261719 239.449219 376.789062 256.140625 369.324219 270.101562 C 362.179688 283.535156 350.265625 293.5 335.800781 298.199219 C 334.011719 298.785156 332.160156 299.136719 330.328125 299.519531 C 333.730469 313.507812 332.191406 328.046875 325.339844 340.917969 C 318.183594 354.335938 306.265625 364.292969 291.847656 368.988281 C 286.566406 370.707031 281.347656 371.425781 276.402344 371.425781 C 269.742188 371.425781 263.644531 370.078125 258.550781 368.1875 C 258.699219 378.050781 256.65625 387.921875 251.960938 396.714844 C 244.816406 410.144531 232.933594 420.113281 218.46875 424.8125 C 213.464844 426.441406 208.261719 427.277344 202.996094 427.277344 C 191.773438 427.277344 183.425781 423.582031 179.785156 421.628906 L 166.980469 414.949219 L 162.25 419.679688 C 162.25 419.679688 156.234375 425.183594 156.234375 434.359375 C 156.234375 441.640625 158.929688 448.921875 164.371094 454.574219 C 170.136719 460.5625 177.800781 463.546875 185.488281 463.546875 C 194.65625 463.546875 200.160156 457.640625 200.160156 457.640625 L 204.484375 453.339844 C 210.222656 447.601562 219.464844 447.601562 225.199219 453.339844 C 230.9375 459.078125 230.9375 468.359375 225.199219 474.097656 L 176.921875 522.4375 C 176.921875 522.4375 170.90625 527.941406 170.90625 537.117188 C 170.90625 544.398438 173.597656 551.679688 179.042969 557.332031 C 184.808594 563.320312 192.472656 566.304688 200.160156 566.304688 C 209.328125 566.304688 214.828125 560.398438 214.828125 560.398438 L 277.835938 497.378906 C 283.570312 491.640625 292.816406 491.640625 298.550781 497.378906 C 304.289062 503.117188 304.289062 512.398438 298.550781 518.136719 L 220.933594 595.835938 C 220.933594 595.835938 214.914062 601.339844 214.914062 610.515625 C 214.914062 617.796875 217.609375 625.078125 223.050781 630.730469 C 228.816406 636.71875 236.480469 639.703125 244.167969 639.703125 C 253.335938 639.703125 258.839844 633.796875 258.839844 633.796875 L 351.1875 541.417969 C 356.921875 535.679688 366.164062 535.679688 371.902344 541.417969 C 377.636719 547.15625 377.636719 556.4375 371.902344 562.175781 L 294.226562 640.019531 C 294.226562 640.019531 288.207031 645.523438 288.207031 654.699219 C 288.207031 661.980469 290.902344 669.261719 296.34375 674.910156 C 302.109375 680.902344 309.773438 683.886719 317.460938 683.886719 C 319.179688 683.886719 320.636719 683.535156 322.074219 683.199219 L 323.566406 682.769531 C 326.75 681.785156 328.722656 680.625 330.011719 679.726562 C 331.273438 678.789062 332.132812 677.980469 332.132812 677.980469 L 427.574219 582.503906 L 427.601562 582.503906 L 499.835938 509.078125 C 505.234375 503.601562 508.257812 496.199219 508.257812 488.492188 L 508.257812 446.859375 C 507.773438 445.980469 507.382812 445.273438 506.882812 444.394531 L 452.1875 410.046875 C 428.933594 396.011719 416.578125 369.792969 421.183594 342.179688 C 425.847656 314.214844 449.292969 291.9375 477.371094 288.136719 C 490.78125 286.332031 503.875 288.605469 516.136719 294.875 C 516.136719 294.875 554.054688 313.75 598.371094 335.875 L 599.859375 336.675781 C 615.5 345.660156 629.039062 357.457031 640.289062 371.109375 L 640.289062 331.601562 C 640.289062 283.6875 622.710938 241.632812 609.859375 210.925781 C 602.878906 194.277344 596.28125 178.550781 596.28125 170.125 L 596.28125 82.046875 Z M 298.550781 111.40625 C 296.660156 111.425781 294.574219 111.699219 292.390625 112.410156 C 285.480469 114.65625 279.414062 119.472656 275.714844 126.402344 C 271.796875 133.742188 271.332031 141.96875 273.710938 149.28125 C 276.539062 158 283.851562 161.410156 283.851562 161.410156 L 325.628906 182.769531 C 325.628906 182.769531 332.714844 186.792969 341.445312 183.945312 C 348.355469 181.699219 354.421875 176.882812 358.121094 169.953125 C 362.023438 162.65625 362.503906 154.425781 360.125 147.101562 C 359.597656 145.472656 358.796875 144.179688 358.035156 142.914062 L 357.144531 141.652344 C 355.222656 138.9375 353.523438 137.417969 352.273438 136.464844 C 351 135.554688 349.984375 134.945312 349.984375 134.945312 L 308.207031 113.613281 C 308.207031 113.613281 304.226562 111.34375 298.550781 111.40625 Z M 229.871094 169.636719 C 227.980469 169.660156 225.894531 169.957031 223.710938 170.667969 C 216.800781 172.914062 210.730469 177.730469 207.035156 184.660156 C 203.117188 192 202.625 200.230469 205 207.539062 C 207.832031 216.261719 215.171875 219.667969 215.171875 219.667969 L 310.929688 269.097656 C 310.929688 269.097656 318.015625 273.121094 326.746094 270.273438 C 333.65625 268.027344 339.738281 263.210938 343.421875 256.28125 C 347.339844 248.957031 347.832031 240.726562 345.457031 233.402344 C 342.625 224.683594 335.285156 221.273438 335.285156 221.273438 L 239.527344 171.84375 C 239.527344 171.84375 235.546875 169.566406 229.871094 169.636719 Z M 197.121094 246.621094 C 195.230469 246.644531 193.144531 246.910156 190.960938 247.625 C 184.050781 249.871094 177.96875 254.6875 174.285156 261.613281 C 170.367188 268.953125 169.875 277.210938 172.25 284.523438 C 175.082031 293.242188 182.421875 296.621094 182.421875 296.621094 L 266.949219 339.886719 C 266.949219 339.886719 274.035156 343.910156 282.765625 341.0625 C 289.671875 338.816406 295.742188 334 299.441406 327.070312 C 303.34375 319.746094 303.851562 311.503906 301.472656 304.191406 C 298.640625 295.472656 291.300781 292.0625 291.300781 292.0625 L 206.777344 248.796875 C 206.777344 248.796875 202.796875 246.550781 197.121094 246.621094 Z M 486.253906 316.921875 C 465.996094 316.921875 449.578125 333.347656 449.578125 353.621094 C 449.578125 366.949219 456.75 378.5 467.371094 384.929688 C 467.152344 384.886719 530.894531 424.714844 533.273438 426.359375 C 535.941406 428.210938 537.597656 430.46875 537.597656 434.359375 L 537.597656 488.492188 C 537.597656 504.023438 531.609375 518.636719 520.722656 529.691406 L 448.488281 603.089844 L 448.316406 603.261719 L 351.617188 699.941406 C 351.617188 699.941406 349.953125 701.476562 347.546875 703.269531 C 342.355469 706.878906 337.601562 709.148438 332.246094 710.808594 L 332.246094 727.953125 L 566.96875 727.953125 L 566.96875 698.59375 C 566.96875 669.234375 654.988281 566.476562 654.988281 507.757812 C 654.972656 478.398438 646.953125 438.125 629.804688 407.148438 C 619.359375 388.300781 603.921875 372.867188 585.277344 362.164062 C 585.277344 362.164062 502.828125 321.007812 502.816406 321.050781 C 497.828125 318.496094 492.253906 316.921875 486.253906 316.921875 Z M 182.480469 332.230469 C 180.589844 332.253906 178.5 332.523438 176.320312 333.234375 C 169.410156 335.480469 163.339844 340.296875 159.644531 347.226562 C 155.726562 354.566406 155.234375 362.808594 157.609375 370.136719 C 158.136719 371.765625 158.9375 373.03125 159.703125 374.292969 L 160.589844 375.582031 C 162.511719 378.300781 164.214844 379.820312 165.460938 380.773438 C 166.738281 381.683594 167.753906 382.261719 167.753906 382.261719 L 193.570312 395.738281 C 193.570312 395.738281 200.65625 399.746094 209.382812 396.914062 C 216.292969 394.667969 222.363281 389.851562 226.058594 382.921875 C 229.992188 375.554688 230.472656 367.324219 228.09375 360.015625 C 225.261719 351.296875 217.953125 347.886719 217.953125 347.886719 L 192.136719 334.410156 C 192.136719 334.410156 188.15625 332.160156 182.480469 332.230469 Z M 182.480469 332.230469 "/>
</g>
</g>
</svg>
