<?xml version="1.0" encoding="UTF-8"?>
<svg xmlns="http://www.w3.org/2000/svg" xmlns:xlink="http://www.w3.org/1999/xlink" width="810pt" height="809.999993pt" viewBox="0 0 810 809.999993" version="1.2">
<defs>
<clipPath id="clip1">
  <path d="M 718 415 L 810 415 L 810 562.3125 L 718 562.3125 Z M 718 415 "/>
</clipPath>
<clipPath id="clip2">
  <path d="M 0 248.0625 L 791 248.0625 L 791 526 L 0 526 Z M 0 248.0625 "/>
</clipPath>
</defs>
<g id="surface1">
<g clip-path="url(#clip1)" clip-rule="nonzero">
<path style=" stroke:none;fill-rule:nonzero;fill:rgb(21.958923%,71.369934%,100%);fill-opacity:1;" d="M 747.058594 515.71875 L 718.738281 540.070312 L 718.777344 415.117188 L 809.484375 500.914062 L 772.421875 504.925781 L 792.433594 551.445312 L 767.121094 562.355469 L 747.058594 515.71875 "/>
</g>
<g clip-path="url(#clip2)" clip-rule="nonzero">
<path style=" stroke:none;fill-rule:nonzero;fill:rgb(21.958923%,71.369934%,100%);fill-opacity:1;" d="M 266.792969 381.453125 L 212.304688 381.453125 C 211.835938 358.402344 208.480469 336.324219 202.554688 316.855469 C 212.5625 311.714844 221.980469 305.335938 230.585938 297.800781 C 251.84375 319.609375 265.398438 348.984375 266.792969 381.453125 Z M 228.257812 478.539062 C 219.960938 471.535156 210.945312 465.578125 201.402344 460.746094 C 208.035156 440.417969 211.808594 417.046875 212.304688 392.558594 L 266.792969 392.558594 C 265.34375 426.203125 250.851562 456.515625 228.257812 478.539062 Z M 173.542969 510.128906 C 180.324219 503.378906 186.546875 494.554688 191.984375 483.820312 C 194.003906 479.839844 195.863281 475.636719 197.597656 471.277344 C 205.472656 475.367188 212.945312 480.296875 219.890625 486.019531 C 206.441406 497.015625 190.71875 505.332031 173.542969 510.128906 Z M 144.804688 514.285156 L 144.804688 457.101562 C 159.617188 457.785156 174.042969 461.027344 187.527344 466.59375 C 185.851562 470.839844 184.050781 474.929688 182.089844 478.796875 C 171.703125 499.300781 158.632812 511.667969 144.804688 514.285156 Z M 144.804688 392.558594 L 201.214844 392.558594 C 200.734375 415.425781 197.285156 437.183594 191.246094 456.121094 C 176.582031 450.132812 160.898438 446.675781 144.804688 445.988281 Z M 144.804688 332.019531 C 161.300781 331.363281 177.386719 327.800781 192.386719 321.578125 C 197.71875 339.632812 200.765625 360.0625 201.214844 381.453125 L 144.804688 381.453125 Z M 144.804688 259.726562 C 158.632812 262.347656 171.703125 274.714844 182.089844 295.21875 C 184.589844 300.148438 186.851562 305.425781 188.882812 310.972656 C 175.003906 316.835938 160.105469 320.238281 144.804688 320.902344 Z M 222.441406 290.132812 C 215.171875 296.394531 207.289062 301.761719 198.945312 306.1875 C 196.851562 300.574219 194.53125 295.222656 191.984375 290.195312 C 186.546875 279.457031 180.324219 270.636719 173.542969 263.882812 C 191.816406 268.988281 208.441406 278.070312 222.441406 290.132812 Z M 133.714844 320.90625 C 118.410156 320.246094 103.507812 316.863281 89.628906 310.996094 C 91.664062 305.441406 93.929688 300.15625 96.425781 295.21875 C 106.816406 274.714844 119.890625 262.347656 133.714844 259.726562 Z M 133.714844 381.453125 L 77.308594 381.453125 C 77.757812 360.0625 80.804688 339.632812 86.136719 321.578125 C 101.132812 327.800781 117.214844 331.363281 133.714844 332.019531 Z M 133.714844 445.960938 C 117.609375 446.554688 101.894531 449.925781 87.183594 455.832031 C 81.203125 436.964844 77.785156 415.308594 77.308594 392.558594 L 133.714844 392.558594 Z M 133.714844 514.285156 C 119.890625 511.667969 106.816406 499.300781 96.425781 478.796875 C 94.433594 474.851562 92.597656 470.679688 90.894531 466.332031 C 104.421875 460.84375 118.882812 457.675781 133.714844 457.082031 Z M 58.234375 485.703125 C 65.265625 479.960938 72.828125 475.027344 80.796875 470.949219 C 82.566406 475.425781 84.46875 479.738281 86.539062 483.820312 C 91.976562 494.554688 98.199219 503.378906 104.980469 510.128906 C 87.640625 505.285156 71.773438 496.859375 58.234375 485.703125 Z M 11.734375 392.558594 L 66.214844 392.558594 C 66.707031 416.90625 70.445312 440.152344 77.007812 460.398438 C 67.375 465.203125 58.269531 471.15625 49.890625 478.175781 C 27.507812 456.179688 13.164062 426.019531 11.734375 392.558594 Z M 47.9375 297.800781 C 56.542969 305.339844 65.960938 311.714844 75.964844 316.855469 C 70.039062 336.324219 66.683594 358.402344 66.214844 381.453125 L 11.734375 381.453125 C 13.125 348.984375 26.679688 319.609375 47.9375 297.800781 Z M 104.980469 263.882812 C 98.199219 270.632812 91.976562 279.457031 86.539062 290.195312 C 83.988281 295.234375 81.664062 300.597656 79.566406 306.222656 C 71.21875 301.796875 63.332031 296.414062 56.0625 290.148438 C 70.066406 278.078125 86.699219 268.992188 104.980469 263.882812 Z M 703.625 299.964844 L 247.308594 299.964844 C 221.855469 268.351562 182.878906 248.09375 139.261719 248.09375 C 62.753906 248.09375 0.515625 310.410156 0.515625 387.003906 C 0.515625 463.605469 62.753906 525.921875 139.261719 525.921875 C 182.878906 525.921875 221.855469 505.65625 247.308594 474.046875 L 703.625 474.046875 C 704.957031 474.046875 706.285156 474.003906 707.605469 473.949219 L 707.605469 462.835938 C 706.285156 462.90625 704.960938 462.945312 703.625 462.945312 L 255.386719 462.945312 C 269.683594 441.105469 278.007812 415.015625 278.007812 387.003906 C 278.007812 359 269.683594 332.910156 255.386719 311.070312 L 703.625 311.070312 C 745.445312 311.070312 779.46875 345.136719 779.46875 387.003906 C 779.46875 407.054688 771.664062 425.308594 758.941406 438.890625 L 767.039062 446.460938 C 781.617188 430.886719 790.566406 409.980469 790.566406 387.003906 C 790.566406 339.011719 751.5625 299.964844 703.625 299.964844 "/>
</g>
<path style=" stroke:none;fill-rule:nonzero;fill:rgb(21.958923%,71.369934%,100%);fill-opacity:1;" d="M 423.925781 379.253906 C 421.949219 389.421875 419.828125 399.464844 418.414062 409.003906 L 418.132812 409.003906 C 416.714844 399.464844 415.160156 390.3125 413.042969 380.269531 L 405.40625 344.160156 L 382.5 344.160156 L 374.441406 379.253906 C 372.039062 389.804688 369.777344 400.101562 368.21875 409.386719 L 367.9375 409.386719 C 366.382812 400.738281 364.402344 389.675781 362.28125 379.503906 L 355.070312 344.160156 L 332.023438 344.160156 L 354.648438 429.851562 L 378.257812 429.851562 L 387.304688 392.980469 C 389.570312 384.335938 391.125 376.203125 392.820312 366.539062 L 393.101562 366.539062 C 394.234375 376.328125 395.789062 384.335938 397.628906 392.980469 L 405.6875 429.851562 L 429.015625 429.851562 L 453.621094 344.160156 L 431.703125 344.160156 L 423.925781 379.253906 "/>
<path style=" stroke:none;fill-rule:nonzero;fill:rgb(21.958923%,71.369934%,100%);fill-opacity:1;" d="M 550.175781 379.253906 C 548.195312 389.421875 546.074219 399.464844 544.664062 409.003906 L 544.378906 409.003906 C 542.964844 399.464844 541.40625 390.3125 539.292969 380.269531 L 531.652344 344.160156 L 508.75 344.160156 L 500.691406 379.253906 C 498.289062 389.804688 496.027344 400.101562 494.46875 409.386719 L 494.1875 409.386719 C 492.632812 400.738281 490.652344 389.675781 488.53125 379.503906 L 481.316406 344.160156 L 458.273438 344.160156 L 480.898438 429.851562 L 504.503906 429.851562 L 513.554688 392.980469 C 515.820312 384.335938 517.375 376.203125 519.070312 366.539062 L 519.351562 366.539062 C 520.484375 376.328125 522.039062 384.335938 523.878906 392.980469 L 531.9375 429.851562 L 555.265625 429.851562 L 579.871094 344.160156 L 557.953125 344.160156 L 550.175781 379.253906 "/>
<path style=" stroke:none;fill-rule:nonzero;fill:rgb(21.958923%,71.369934%,100%);fill-opacity:1;" d="M 676.425781 379.253906 C 674.445312 389.421875 672.324219 399.464844 670.914062 409.003906 L 670.628906 409.003906 C 669.214844 399.464844 667.65625 390.3125 665.539062 380.269531 L 657.902344 344.160156 L 635 344.160156 L 626.941406 379.253906 C 624.535156 389.804688 622.273438 400.101562 620.71875 409.386719 L 620.4375 409.386719 C 618.882812 400.738281 616.898438 389.675781 614.78125 379.503906 L 607.566406 344.160156 L 584.523438 344.160156 L 607.144531 429.851562 L 630.753906 429.851562 L 639.804688 392.980469 C 642.066406 384.335938 643.625 376.203125 645.320312 366.539062 L 645.601562 366.539062 C 646.734375 376.328125 648.289062 384.335938 650.125 392.980469 L 658.183594 429.851562 L 681.515625 429.851562 L 706.117188 344.160156 L 684.199219 344.160156 L 676.425781 379.253906 "/>
</g>
</svg>
