<?xml version="1.0" encoding="UTF-8"?>
<svg xmlns="http://www.w3.org/2000/svg" xmlns:xlink="http://www.w3.org/1999/xlink" width="675pt" height="675.000002pt" viewBox="0 0 675 675.000002" version="1.2">
<defs>
<clipPath id="clip1">
  <path d="M 1 45.074219 L 674 45.074219 L 674 629.207031 L 1 629.207031 Z M 1 45.074219 "/>
</clipPath>
</defs>
<g id="surface1">
<g clip-path="url(#clip1)" clip-rule="nonzero">
<path style=" stroke:none;fill-rule:nonzero;fill:rgb(57.649231%,74.508667%,66.668701%);fill-opacity:1;" d="M 591.800781 146.828125 L 132.089844 146.828125 L 132.089844 123.058594 L 201.570312 123.058594 C 210.683594 123.058594 218.089844 115.664062 218.089844 106.53125 L 218.089844 61.378906 C 218.089844 52.257812 210.695312 44.851562 201.570312 44.851562 L 115.578125 44.851562 C 106.464844 44.851562 99.058594 52.246094 99.058594 61.378906 L 99.058594 146.828125 L 83.199219 146.828125 C 83.042969 146.828125 82.898438 146.851562 82.75 146.851562 C 82.585938 146.851562 82.449219 146.828125 82.28125 146.828125 C 37.988281 146.828125 1.953125 182.871094 1.953125 227.183594 L 1.953125 463.949219 C 1.953125 473.070312 9.34375 480.476562 18.472656 480.476562 L 357.0625 480.476562 L 357.0625 612.902344 C 357.0625 622.023438 364.445312 629.433594 373.570312 629.433594 C 382.699219 629.433594 390.089844 622.035156 390.089844 612.902344 L 390.089844 480.476562 L 656.539062 480.476562 C 665.65625 480.476562 673.058594 473.082031 673.058594 463.949219 L 673.058594 228.113281 C 673.046875 183.296875 636.597656 146.828125 591.800781 146.828125 Z M 185.058594 90.015625 L 132.089844 90.015625 L 132.089844 77.90625 L 185.058594 77.90625 Z M 34.96875 447.421875 L 34.96875 228.113281 C 34.96875 201.671875 56.367188 180.140625 82.742188 179.882812 C 108.601562 180.128906 129.5625 201.246094 129.5625 227.183594 L 129.5625 447.433594 L 34.96875 447.433594 Z M 640.03125 447.421875 L 162.589844 447.421875 L 162.589844 227.183594 C 162.589844 209.492188 156.761719 193.167969 147.042969 179.859375 L 591.800781 179.859375 C 618.386719 179.859375 640.03125 201.503906 640.03125 228.113281 Z M 640.03125 447.421875 "/>
</g>
<path style=" stroke:none;fill-rule:nonzero;fill:rgb(57.649231%,74.508667%,66.668701%);fill-opacity:1;" d="M 105.503906 403.679688 L 56.289062 403.679688 C 51.726562 403.679688 48.035156 407.371094 48.035156 411.9375 C 48.035156 416.492188 51.726562 420.195312 56.289062 420.195312 L 105.492188 420.195312 C 110.042969 420.195312 113.746094 416.492188 113.746094 411.9375 C 113.757812 407.371094 110.054688 403.679688 105.503906 403.679688 Z M 105.503906 403.679688 "/>
</g>
</svg>
