<?xml version="1.0" encoding="UTF-8"?>
<svg xmlns="http://www.w3.org/2000/svg" xmlns:xlink="http://www.w3.org/1999/xlink" width="810pt" height="809.999993pt" viewBox="0 0 810 809.999993" version="1.2">
<defs>
<clipPath id="clip1">
  <path d="M 0 53.15625 L 810 53.15625 L 810 756.65625 L 0 756.65625 Z M 0 53.15625 "/>
</clipPath>
</defs>
<g id="surface1">
<g clip-path="url(#clip1)" clip-rule="nonzero">
<path style=" stroke:none;fill-rule:nonzero;fill:rgb(79.60968%,42.349243%,90.19928%);fill-opacity:1;" d="M 52.882812 53.15625 C 24.089844 53.15625 0.378906 76.859375 0.378906 105.644531 L 0.378906 704.167969 C 0.378906 732.953125 24.089844 756.65625 52.882812 756.65625 L 757.117188 756.65625 C 785.910156 756.65625 809.621094 732.953125 809.621094 704.167969 L 809.621094 105.644531 C 809.621094 76.859375 785.910156 53.15625 757.117188 53.15625 Z M 52.882812 88.332031 L 757.117188 88.332031 C 766.875 88.332031 774.4375 95.886719 774.4375 105.644531 L 774.4375 158.679688 L 35.5625 158.679688 L 35.5625 105.644531 C 35.5625 95.886719 43.125 88.332031 52.882812 88.332031 Z M 88.339844 105.917969 C 78.652344 105.917969 70.75 113.820312 70.75 123.507812 C 70.75 133.191406 78.652344 141.09375 88.339844 141.09375 C 98.03125 141.09375 105.933594 133.191406 105.933594 123.507812 C 105.933594 113.820312 98.03125 105.917969 88.339844 105.917969 Z M 141.117188 105.917969 C 131.429688 105.917969 123.523438 113.820312 123.523438 123.507812 C 123.523438 133.191406 131.429688 141.09375 141.117188 141.09375 C 150.804688 141.09375 158.710938 133.191406 158.710938 123.507812 C 158.710938 113.820312 150.804688 105.917969 141.117188 105.917969 Z M 35.5625 193.855469 L 774.4375 193.855469 L 774.4375 440.082031 L 35.5625 440.082031 Z M 35.5625 475.257812 L 387.40625 475.257812 L 387.40625 721.480469 L 52.882812 721.480469 C 43.125 721.480469 35.5625 713.925781 35.5625 704.167969 Z M 422.59375 475.257812 L 774.4375 475.257812 L 774.4375 704.167969 C 774.4375 713.925781 766.875 721.480469 757.117188 721.480469 L 422.59375 721.480469 Z M 70.75 510.429688 L 70.75 545.605469 L 352.222656 545.605469 L 352.222656 510.429688 Z M 70.75 580.78125 L 70.75 615.957031 L 352.222656 615.957031 L 352.222656 580.78125 Z M 70.75 651.132812 L 70.75 686.304688 L 229.078125 686.304688 L 229.078125 651.132812 Z M 70.75 651.132812 "/>
</g>
</g>
</svg>
