<?xml version="1.0" encoding="UTF-8"?>
<svg xmlns="http://www.w3.org/2000/svg" xmlns:xlink="http://www.w3.org/1999/xlink" width="810pt" height="809.999993pt" viewBox="0 0 810 809.999993" version="1.2">
<defs>
<clipPath id="clip1">
  <path d="M 215 42 L 769.5 42 L 769.5 598 L 215 598 Z M 215 42 "/>
</clipPath>
<clipPath id="clip2">
  <path d="M 40.5 306 L 509 306 L 509 768.492188 L 40.5 768.492188 Z M 40.5 306 "/>
</clipPath>
</defs>
<g id="surface1">
<g clip-path="url(#clip1)" clip-rule="nonzero">
<path style=" stroke:none;fill-rule:nonzero;fill:rgb(100%,56.858826%,30.198669%);fill-opacity:1;" d="M 499.554688 414.023438 C 497.226562 416.417969 492.5 418.746094 487.777344 418.746094 C 483.117188 418.746094 478.390625 416.417969 476.0625 414.023438 C 469.007812 406.96875 469.007812 395.253906 476.0625 388.199219 L 555.859375 308.398438 C 562.914062 301.34375 574.628906 301.34375 581.683594 308.398438 C 588.738281 315.453125 588.738281 327.167969 581.683594 334.222656 Z M 363.386719 296.683594 C 358.726562 296.683594 354 294.355469 351.671875 291.960938 C 344.617188 284.972656 344.617188 273.191406 351.671875 266.136719 L 431.46875 186.339844 C 438.523438 179.285156 450.238281 179.285156 457.292969 186.339844 C 464.347656 193.394531 464.347656 205.109375 457.292969 212.160156 L 377.496094 291.960938 C 372.769531 294.355469 368.109375 296.683594 363.386719 296.683594 Z M 762.445312 381.210938 L 694.425781 313.125 L 605.175781 402.308594 C 602.847656 406.96875 598.121094 406.96875 593.464844 406.96875 C 588.738281 406.96875 584.015625 404.636719 581.683594 402.308594 C 574.628906 395.253906 574.628906 383.539062 581.683594 376.484375 L 670.867188 287.300781 L 574.628906 191.0625 L 485.445312 280.246094 C 483.117188 282.578125 478.390625 284.972656 473.730469 284.972656 C 469.007812 284.972656 464.347656 282.578125 462.019531 280.246094 C 454.964844 273.191406 454.964844 261.476562 462.019531 254.421875 L 546.476562 167.570312 L 426.808594 47.839844 C 422.085938 43.179688 415.03125 40.785156 407.976562 45.507812 C 400.988281 47.839844 396.261719 54.894531 396.261719 61.949219 C 396.261719 85.375 304.75 191.0625 215.5 280.246094 L 532.433594 597.113281 C 621.617188 507.929688 727.238281 416.417969 750.730469 416.417969 C 760.117188 416.417969 769.5 409.363281 769.5 397.582031 C 769.5 390.59375 767.171875 385.867188 762.445312 381.210938 "/>
</g>
<g clip-path="url(#clip2)" clip-rule="nonzero">
<path style=" stroke:none;fill-rule:nonzero;fill:rgb(100%,56.858826%,30.198669%);fill-opacity:1;" d="M 154.472656 338.949219 C 119.261719 374.15625 119.261719 430.460938 154.472656 465.667969 L 170.910156 482.105469 C 180.292969 491.492188 185.019531 503.269531 182.625 517.3125 C 180.292969 531.421875 175.632812 543.136719 163.855469 550.191406 C 138.03125 568.960938 112.210938 590.058594 91.109375 611.222656 C 55.902344 646.429688 13.640625 700.40625 62.957031 747.390625 C 77 761.4375 93.441406 768.492188 112.210938 768.492188 C 138.03125 768.492188 166.183594 752.050781 201.457031 719.175781 C 222.554688 698.074219 243.71875 672.253906 262.488281 646.429688 C 276.53125 625.332031 311.738281 620.605469 330.574219 639.375 L 346.945312 655.8125 C 379.824219 688.691406 440.855469 688.691406 473.730469 655.8125 L 508.941406 620.605469 L 189.679688 306.070312 L 154.472656 338.949219 "/>
</g>
</g>
</svg>
