<?xml version="1.0" encoding="UTF-8"?>
<svg xmlns="http://www.w3.org/2000/svg" xmlns:xlink="http://www.w3.org/1999/xlink" width="810pt" height="809.999993pt" viewBox="0 0 810 809.999993" version="1.2">
<g id="surface1">
<path style=" stroke:none;fill-rule:nonzero;fill:rgb(0%,76.078796%,79.60968%);fill-opacity:1;" d="M 599.136719 234.855469 L 728.558594 263.898438 C 729.1875 263.898438 730.453125 263.898438 731.082031 263.898438 C 736.765625 263.898438 741.816406 260.109375 743.078125 253.796875 C 744.339844 246.851562 740.554688 240.539062 733.609375 238.644531 L 604.183594 209.601562 C 597.242188 208.339844 590.925781 212.128906 589.035156 219.074219 C 588.402344 226.648438 592.191406 233.59375 599.136719 234.855469 Z M 599.136719 234.855469 "/>
<path style=" stroke:none;fill-rule:nonzero;fill:rgb(0%,76.078796%,79.60968%);fill-opacity:1;" d="M 575.777344 280.3125 C 574.511719 287.257812 578.300781 293.570312 585.246094 295.464844 L 714.667969 324.503906 C 715.300781 324.503906 716.5625 324.503906 717.195312 324.503906 C 722.875 324.503906 727.925781 320.71875 729.1875 314.402344 C 730.453125 307.460938 726.664062 301.144531 719.71875 299.25 L 590.296875 270.210938 C 583.984375 269.578125 577.039062 274 575.777344 280.3125 Z M 575.777344 280.3125 "/>
<path style=" stroke:none;fill-rule:nonzero;fill:rgb(0%,76.078796%,79.60968%);fill-opacity:1;" d="M 561.253906 340.917969 C 559.992188 347.863281 563.78125 354.175781 570.726562 356.070312 L 700.148438 385.113281 C 700.78125 385.113281 702.042969 385.113281 702.671875 385.113281 C 708.355469 385.113281 713.40625 381.324219 714.667969 375.011719 C 715.929688 368.066406 712.144531 361.753906 705.199219 359.859375 L 575.777344 330.820312 C 569.460938 330.1875 563.148438 334.605469 561.253906 340.917969 Z M 561.253906 340.917969 "/>
<path style=" stroke:none;fill-rule:nonzero;fill:rgb(0%,76.078796%,79.60968%);fill-opacity:1;" d="M 547.367188 402.160156 C 546.101562 409.105469 549.890625 415.417969 556.835938 417.3125 L 686.257812 446.351562 C 686.890625 446.351562 688.152344 446.351562 688.785156 446.351562 C 694.464844 446.351562 699.515625 442.5625 700.78125 436.25 C 702.042969 429.304688 698.253906 422.992188 691.308594 421.097656 L 562.515625 392.6875 C 555.574219 390.796875 548.628906 395.214844 547.367188 402.160156 Z M 547.367188 402.160156 "/>
<path style=" stroke:none;fill-rule:nonzero;fill:rgb(0%,76.078796%,79.60968%);fill-opacity:1;" d="M 553.679688 569.460938 L 640.171875 589.035156 C 640.800781 589.035156 642.066406 589.035156 642.695312 589.035156 C 648.378906 589.035156 653.429688 585.246094 654.691406 578.933594 C 655.953125 571.988281 652.167969 565.675781 645.222656 563.78125 L 516.429688 534.738281 L 538.527344 550.523438 C 546.101562 555.574219 550.523438 561.886719 553.679688 569.460938 Z M 553.679688 569.460938 "/>
<path style=" stroke:none;fill-rule:nonzero;fill:rgb(0%,76.078796%,79.60968%);fill-opacity:1;" d="M 631.332031 625.019531 L 555.574219 607.972656 L 555.574219 633.859375 L 626.28125 649.640625 C 626.914062 649.640625 628.175781 649.640625 628.808594 649.640625 C 634.488281 649.640625 639.539062 645.851562 640.800781 639.539062 C 642.695312 633.226562 638.277344 626.914062 631.332031 625.019531 Z M 631.332031 625.019531 "/>
<path style=" stroke:none;fill-rule:nonzero;fill:rgb(0%,76.078796%,79.60968%);fill-opacity:1;" d="M 657.21875 528.425781 C 662.898438 528.425781 667.949219 524.636719 669.210938 518.324219 C 670.476562 511.378906 666.6875 505.066406 659.742188 503.171875 L 492.441406 465.292969 L 492.441406 491.175781 L 654.0625 527.792969 C 655.324219 528.425781 655.953125 528.425781 657.21875 528.425781 Z M 657.21875 528.425781 "/>
<path style=" stroke:none;fill-rule:nonzero;fill:rgb(0%,76.078796%,79.60968%);fill-opacity:1;" d="M 456.453125 226.648438 L 467.1875 230.4375 C 474.132812 232.960938 480.445312 238.011719 484.863281 243.695312 C 497.488281 236.117188 507.589844 223.492188 510.75 208.339844 C 513.90625 193.820312 511.378906 178.667969 503.804688 166.039062 C 495.597656 153.414062 482.96875 143.945312 467.816406 140.789062 C 456.453125 138.261719 445.722656 139.523438 435.621094 142.679688 C 439.40625 149.625 441.300781 157.832031 441.300781 166.039062 L 441.300781 167.304688 C 445.722656 165.410156 450.140625 164.148438 455.191406 164.148438 C 457.714844 164.148438 460.242188 164.148438 462.136719 164.777344 C 470.34375 166.671875 477.289062 171.722656 481.707031 178.667969 C 486.125 185.613281 487.390625 193.820312 485.496094 202.027344 C 483.601562 217.179688 470.34375 226.648438 456.453125 226.648438 Z M 456.453125 226.648438 "/>
<path style=" stroke:none;fill-rule:nonzero;fill:rgb(0%,76.078796%,79.60968%);fill-opacity:1;" d="M 492.441406 414.785156 L 492.441406 440.671875 L 499.382812 441.933594 C 500.015625 441.933594 501.277344 441.933594 501.910156 441.933594 C 507.589844 441.933594 512.640625 438.144531 513.90625 432.464844 L 532.214844 353.546875 C 535.371094 339.027344 532.84375 323.875 525.269531 311.246094 C 517.691406 299.25 505.699219 290.414062 492.441406 286.625 L 492.441406 313.773438 C 496.859375 316.296875 501.277344 320.085938 503.804688 324.503906 C 508.222656 331.449219 509.484375 339.65625 507.589844 347.863281 Z M 492.441406 414.785156 "/>
<path style=" stroke:none;fill-rule:nonzero;fill:rgb(0%,76.078796%,79.60968%);fill-opacity:1;" d="M 16.414062 673.632812 L 382.585938 807.472656 C 385.113281 808.738281 388.269531 808.738281 391.425781 808.738281 C 396.476562 808.738281 401.527344 807.472656 405.945312 804.316406 C 412.890625 799.898438 416.679688 791.691406 416.679688 783.484375 L 416.679688 756.335938 L 449.507812 770.226562 C 450.773438 770.855469 452.664062 771.488281 454.558594 771.488281 C 457.085938 771.488281 459.609375 770.855469 461.503906 769.59375 C 465.292969 767.070312 467.1875 763.28125 467.1875 758.863281 L 467.1875 722.246094 L 517.691406 722.246094 C 524.636719 722.246094 530.320312 716.5625 530.320312 709.617188 L 530.320312 582.089844 C 530.320312 577.667969 528.425781 573.882812 524.636719 571.988281 L 467.1875 531.582031 L 467.1875 266.421875 C 467.1875 261.371094 464.03125 256.320312 458.980469 254.425781 L 416.679688 239.273438 L 416.679688 166.671875 C 416.679688 155.9375 410.367188 146.46875 400.265625 142.679688 L 81.441406 26.515625 L 489.914062 26.515625 L 489.914062 75.761719 L 555.574219 75.761719 L 555.574219 109.21875 L 359.859375 65.027344 C 356.703125 64.394531 354.175781 64.394531 351.019531 64.394531 C 335.867188 64.394531 323.242188 73.234375 316.929688 85.859375 L 340.917969 94.699219 C 343.445312 91.542969 347.234375 89.648438 351.019531 89.648438 C 351.652344 89.648438 352.914062 89.648438 353.546875 90.28125 L 772.75 184.980469 C 779.695312 186.242188 784.117188 193.1875 782.222656 200.132812 L 658.480469 733.609375 L 555.574219 710.25 C 555.574219 719.089844 551.785156 727.925781 546.101562 734.238281 L 652.796875 758.230469 C 654.691406 758.863281 656.585938 758.863281 658.480469 758.863281 C 669.84375 758.863281 680.578125 751.285156 683.101562 739.289062 L 807.476562 205.183594 C 810 195.082031 808.105469 184.980469 802.425781 176.773438 C 796.742188 167.933594 788.535156 162.253906 778.433594 159.726562 L 580.824219 115.535156 L 580.824219 76.390625 C 580.824219 62.503906 569.460938 51.136719 555.574219 51.136719 L 515.167969 51.136719 L 515.167969 26.515625 C 515.167969 12.625 503.804688 1.261719 489.914062 1.261719 L 25.253906 1.261719 C 11.363281 1.261719 0 12.625 0 26.515625 L 0 29.042969 C 0 30.304688 0 31.566406 0 32.828125 L 0 650.273438 C 0 661.003906 6.3125 670.476562 16.414062 673.632812 Z M 416.679688 265.792969 L 441.933594 275.261719 L 441.933594 537.894531 C 441.933594 542.316406 443.828125 546.101562 447.613281 547.996094 L 505.066406 588.402344 L 505.066406 696.359375 L 454.558594 696.359375 C 447.613281 696.359375 441.933594 702.042969 441.933594 708.988281 L 441.933594 739.289062 L 416.679688 728.558594 Z M 25.253906 32.828125 L 391.425781 166.671875 L 391.425781 784.117188 L 25.253906 650.273438 Z M 25.253906 32.828125 "/>
</g>
</svg>
