<?xml version="1.0" encoding="UTF-8"?>
<svg xmlns="http://www.w3.org/2000/svg" xmlns:xlink="http://www.w3.org/1999/xlink" width="810pt" height="809.999993pt" viewBox="0 0 810 809.999993" version="1.2">
<defs>
<clipPath id="clip1">
  <path d="M 50.625 2 L 759 2 L 759 808 L 50.625 808 Z M 50.625 2 "/>
</clipPath>
<clipPath id="clip2">
  <path d="M 510 97 L 759.375 97 L 759.375 808 L 510 808 Z M 510 97 "/>
</clipPath>
</defs>
<g id="surface1">
<g clip-path="url(#clip1)" clip-rule="nonzero">
<path style=" stroke:none;fill-rule:nonzero;fill:rgb(48.629761%,70.199585%,25.878906%);fill-opacity:1;" d="M 671.101562 158.949219 C 670.640625 154.703125 666.855469 152.808594 664.035156 152.808594 C 661.21875 152.808594 599.402344 148.097656 599.402344 148.097656 C 599.402344 148.097656 556.476562 105.171875 551.28125 100.921875 C 546.570312 96.210938 537.589844 97.621094 533.824219 98.566406 C 533.359375 98.566406 524.378906 101.40625 509.761719 106.117188 C 495.144531 64.117188 470.136719 25.898438 425.316406 25.898438 L 421.066406 25.898438 C 408.765625 9.851562 392.738281 2.300781 379.527344 2.300781 C 275.734375 2.300781 225.71875 132.050781 210.152344 198.113281 C 169.582031 210.859375 140.789062 219.335938 137.488281 220.765625 C 114.835938 227.832031 114.371094 228.316406 111.535156 249.539062 C 109.175781 265.585938 50.203125 721.824219 50.203125 721.824219 L 509.277344 807.699219 L 758.410156 753.917969 C 758.871094 752.972656 671.585938 163.199219 671.101562 158.949219 Z M 484.269531 112.699219 C 472.957031 116.003906 459.261719 120.25 445.59375 124.964844 L 445.59375 116.488281 C 445.59375 91.015625 442.289062 70.257812 436.148438 53.726562 C 459.726562 56.566406 474.363281 82.519531 484.269531 112.699219 Z M 407.355469 58.921875 C 413.496094 74.96875 417.746094 97.621094 417.746094 128.75 L 417.746094 133.460938 C 392.273438 141.472656 365.375 149.507812 337.527344 158.46875 C 353.09375 99.03125 382.832031 69.773438 407.355469 58.921875 Z M 377.152344 29.664062 C 381.863281 29.664062 386.597656 31.558594 390.363281 34.375 C 356.855469 49.941406 321.480469 89.101562 306.84375 168.375 C 284.671875 175.441406 263.429688 181.582031 243.15625 188.1875 C 260.148438 127.800781 302.613281 29.664062 377.152344 29.664062 Z M 377.152344 29.664062 "/>
</g>
<g clip-path="url(#clip2)" clip-rule="nonzero">
<path style=" stroke:none;fill-rule:nonzero;fill:rgb(33.329773%,54.508972%,18.429565%);fill-opacity:1;" d="M 664.035156 151.863281 C 661.195312 151.863281 599.402344 147.152344 599.402344 147.152344 C 599.402344 147.152344 556.476562 104.222656 551.28125 99.976562 C 549.367188 98.082031 547.011719 97.136719 545.140625 97.136719 L 510.6875 807.699219 L 759.816406 753.917969 C 759.816406 753.917969 672.53125 163.199219 672.050781 158.949219 C 670.15625 154.703125 666.855469 152.808594 664.035156 151.863281 Z M 664.035156 151.863281 "/>
</g>
<path style=" stroke:none;fill-rule:nonzero;fill:rgb(100%,100%,100%);fill-opacity:1;" d="M 420.945312 296.128906 L 391.246094 385.710938 C 391.246094 385.710938 364.328125 371.3125 332.3125 371.3125 C 284.511719 371.3125 282.195312 401.476562 282.195312 408.90625 C 282.195312 449.738281 388.933594 465.527344 388.933594 561.589844 C 388.933594 637.238281 341.132812 685.964844 276.621094 685.964844 C 198.65625 685.964844 159.675781 637.699219 159.675781 637.699219 L 180.554688 569.019531 C 180.554688 569.019531 221.390625 604.296875 255.738281 604.296875 C 278.472656 604.296875 287.753906 586.65625 287.753906 573.671875 C 287.753906 520.292969 200.507812 517.976562 200.507812 429.804688 C 200.507812 356.011719 253.425781 284.554688 360.621094 284.554688 C 400.511719 284.070312 420.945312 296.128906 420.945312 296.128906 Z M 420.945312 296.128906 "/>
</g>
</svg>
