<?xml version="1.0" encoding="UTF-8"?>
<svg xmlns="http://www.w3.org/2000/svg" xmlns:xlink="http://www.w3.org/1999/xlink" width="810pt" height="809.999993pt" viewBox="0 0 810 809.999993" version="1.2">
<g id="surface1">
<path style=" stroke:none;fill-rule:nonzero;fill:rgb(100%,72.549438%,2.349854%);fill-opacity:1;" d="M 558.160156 253.113281 C 544.871094 252.480469 534.082031 254.398438 534.082031 254.398438 L 635.332031 406.359375 L 534.082031 555.800781 C 534.082031 555.800781 579.636719 563.398438 599.886719 543.136719 C 612.542969 530.472656 620.136719 517.796875 663.167969 457.015625 C 670.761719 444.351562 678.394531 457.015625 678.394531 457.015625 C 716.363281 507.667969 726.480469 527.9375 744.199219 543.136719 C 766.980469 560.863281 810 555.800781 810 555.800781 L 708.75 406.359375 L 807.480469 254.398438 C 807.480469 254.398438 764.449219 246.800781 744.199219 267.0625 C 729.011719 282.257812 713.832031 302.519531 678.394531 355.707031 C 678.394531 355.707031 670.761719 368.371094 663.167969 355.707031 C 627.730469 305.050781 612.550781 282.257812 597.363281 267.0625 C 587.238281 256.929688 571.449219 253.746094 558.160156 253.113281 Z M 10.628906 254.152344 C 7.050781 253.984375 3.480469 254.082031 0 254.398438 L 80.980469 558.320312 C 80.980469 558.320312 106.292969 558.339844 118.949219 553.277344 C 136.667969 545.679688 144.269531 538.050781 154.394531 497.527344 C 164.519531 462.070312 189.832031 353.164062 192.363281 345.566406 C 197.425781 327.835938 205.050781 327.835938 210.113281 345.566406 C 212.644531 353.164062 237.957031 459.535156 248.082031 497.527344 C 258.207031 538.050781 265.761719 545.679688 283.480469 553.277344 C 298.667969 560.875 324.019531 558.320312 324.019531 558.320312 L 405 254.398438 C 377.15625 251.867188 344.25 267.042969 341.71875 297.433594 L 298.707031 459.535156 L 263.261719 327.855469 C 255.667969 289.867188 237.925781 269.585938 205.019531 269.585938 C 172.113281 269.585938 156.957031 287.332031 146.832031 327.855469 L 111.386719 459.535156 L 68.324219 297.433594 C 61.679688 268.625 35.683594 255.328125 10.628906 254.152344 Z M 496.113281 254.398438 C 496.113281 254.398438 475.894531 254.378906 463.238281 259.445312 C 448.050781 267.042969 442.96875 282.25 442.96875 320.238281 C 442.96875 320.238281 450.582031 312.640625 463.238281 307.574219 C 498.675781 294.910156 496.113281 269.59375 496.113281 254.398438 Z M 493.59375 305.050781 L 493.59375 306.980469 C 494.210938 305.878906 494.355469 305.050781 493.59375 305.050781 Z M 493.59375 306.980469 C 492.164062 309.539062 487.257812 314.175781 478.417969 317.714844 C 470.824219 322.78125 463.21875 325.324219 455.625 327.855469 C 437.90625 335.453125 440.449219 345.566406 440.449219 370.890625 L 440.449219 558.320312 C 440.449219 558.320312 460.667969 560.875 473.324219 553.277344 C 491.042969 545.679688 493.59375 535.515625 493.59375 497.527344 Z M 493.59375 306.980469 "/>
</g>
</svg>
