<?xml version="1.0" encoding="UTF-8"?>
<svg xmlns="http://www.w3.org/2000/svg" xmlns:xlink="http://www.w3.org/1999/xlink" width="810pt" height="809.999993pt" viewBox="0 0 810 809.999993" version="1.2">
<defs>
<clipPath id="clip1">
  <path d="M 0 158.960938 L 810 158.960938 L 810 650.890625 L 0 650.890625 Z M 0 158.960938 "/>
</clipPath>
</defs>
<g id="surface1">
<g clip-path="url(#clip1)" clip-rule="nonzero">
<path style=" stroke:none;fill-rule:nonzero;fill:rgb(65.098572%,29.019165%,48.239136%);fill-opacity:1;" d="M 738.90625 158.960938 L 71.09375 158.960938 C 32.273438 158.960938 0.800781 190.429688 0.800781 229.238281 L 0.800781 510.339844 C 0.800781 549.152344 32.273438 580.617188 71.09375 580.617188 L 405 580.617188 L 545.589844 650.890625 L 510.445312 580.617188 L 738.90625 580.617188 C 777.726562 580.617188 809.199219 549.152344 809.199219 510.339844 L 809.199219 229.238281 C 809.199219 190.429688 777.726562 158.960938 738.90625 158.960938 Z M 738.90625 158.960938 "/>
</g>
<path style=" stroke:none;fill-rule:nonzero;fill:rgb(100%,100%,100%);fill-opacity:1;" d="M 693.96875 299.515625 C 694.6875 299.515625 696.289062 299.601562 698.835938 300.179688 C 704.847656 301.535156 708.660156 303.660156 713.246094 312.234375 C 718.695312 322.054688 721.332031 334.773438 721.332031 351.148438 C 721.332031 375.710938 715.761719 397.511719 704.230469 417.945312 C 691.824219 440.066406 682.757812 440.066406 678.398438 440.066406 C 677.675781 440.066406 676.078125 439.976562 673.53125 439.398438 C 667.519531 438.042969 663.707031 435.917969 659.3125 427.695312 C 653.8125 417.613281 651.035156 404.277344 651.035156 388.113281 C 651.035156 363.535156 656.554688 341.90625 667.957031 321.96875 C 680.753906 299.515625 690.015625 299.515625 693.96875 299.515625 M 693.96875 246.808594 C 664.621094 246.808594 640.789062 263.164062 622.144531 295.878906 C 606.257812 323.671875 598.3125 354.417969 598.3125 388.113281 C 598.3125 413.308594 603.199219 434.882812 612.988281 452.871094 C 623.988281 473.480469 640.191406 485.902344 661.894531 490.820312 C 667.695312 492.121094 673.195312 492.773438 678.398438 492.773438 C 708.046875 492.773438 731.875 476.414062 750.222656 443.703125 C 766.109375 415.574219 774.050781 384.828125 774.050781 351.148438 C 774.050781 325.640625 769.167969 304.378906 759.378906 286.707031 C 748.378906 266.097656 732.175781 253.675781 710.46875 248.757812 C 704.671875 247.457031 699.171875 246.808594 693.96875 246.808594 Z M 483.082031 299.515625 C 483.800781 299.515625 485.402344 299.601562 487.789062 300.144531 C 493.644531 301.480469 497.824219 303.78125 502.359375 312.25 C 507.808594 322.054688 510.445312 334.773438 510.445312 351.148438 C 510.445312 375.710938 504.871094 397.511719 493.34375 417.945312 C 480.9375 440.066406 471.867188 440.066406 467.511719 440.066406 C 466.789062 440.066406 465.191406 439.976562 462.640625 439.398438 C 456.632812 438.042969 452.820312 435.917969 448.425781 427.695312 C 442.925781 417.613281 440.148438 404.277344 440.148438 388.113281 C 440.148438 363.535156 445.667969 341.90625 457.070312 321.96875 C 469.867188 299.515625 479.125 299.515625 483.082031 299.515625 M 483.082031 246.808594 C 453.734375 246.808594 429.902344 263.164062 411.257812 295.878906 C 395.371094 323.671875 387.425781 354.417969 387.425781 388.113281 C 387.425781 413.308594 392.3125 434.882812 402.101562 452.871094 C 413.101562 473.480469 429.304688 485.902344 451.007812 490.820312 C 456.808594 492.121094 462.308594 492.773438 467.511719 492.773438 C 497.15625 492.773438 520.988281 476.414062 539.335938 443.703125 C 555.222656 415.574219 563.164062 384.828125 563.164062 351.148438 C 563.164062 325.640625 558.28125 304.378906 548.492188 286.707031 C 537.488281 266.097656 520.988281 253.675781 499.582031 248.757812 C 493.785156 247.457031 488.28125 246.808594 483.082031 246.808594 Z M 308.34375 527.910156 C 300.945312 527.910156 293.722656 524.78125 288.609375 519.039062 C 250.015625 475.484375 226.308594 418.28125 212.335938 372.460938 C 192.230469 414.976562 165.097656 469.351562 137.628906 515.101562 C 132.199219 524.148438 121.917969 529.015625 111.425781 527.664062 C 100.953125 526.207031 92.359375 518.652344 89.601562 508.460938 C 50.726562 365.679688 36.753906 263.375 36.191406 259.085938 C 34.261719 244.679688 44.382812 231.417969 58.792969 229.464844 C 73.398438 227.570312 86.488281 237.636719 88.441406 252.058594 C 88.5625 252.921875 98.476562 325.445312 124.167969 431.246094 C 163.148438 357.316406 195.835938 281.292969 196.257812 280.328125 C 200.949219 269.4375 212.40625 262.953125 224.023438 264.605469 C 235.761719 266.1875 245.007812 275.410156 246.605469 287.144531 C 246.730469 288.058594 256.132812 354.347656 286.058594 418.050781 C 298.695312 292.152344 336.550781 227.621094 338.464844 224.425781 C 345.96875 211.933594 362.191406 207.890625 374.632812 215.375 C 387.128906 222.859375 391.167969 239.058594 383.683594 251.53125 C 383.242188 252.304688 334.703125 336.671875 334.703125 501.554688 C 334.703125 512.5 327.921875 522.324219 317.691406 526.1875 C 314.636719 527.347656 311.488281 527.910156 308.34375 527.910156 Z M 308.34375 527.910156 "/>
</g>
</svg>
